<svg width="315" height="68" viewBox="0 0 315 68" fill="none" xmlns="http://www.w3.org/2000/svg">
  <path d="M62.0074 13.0901H12.7128C12.2927 13.0901 11.6139 13.2954 10.6777 13.7066C9.68203 14.144 8.45383 14.7945 6.99482 15.6587C4.78747 18.1958 3.11856 19.2439 1.99092 24.1544C0.82887 29.215 1.5961 38.1986 1.5961 45.7505C1.5961 52.6417 0.663518 58.108 6.5128 63.2569C8.45262 64.9646 10.7415 65.8189 13.3793 65.8189H62.7739C69.2057 65.8189 73.1816 60.1705 73.1816 55.3202V37.3515C73.1816 36.2589 72.9853 35.3766 72.5966 34.7067C72.2587 34.124 71.7576 33.6809 71.0967 33.3778H35.9572C33.3113 33.3778 31.9882 35.4054 31.9882 39.4481C31.9882 41.3103 32.3797 42.6759 33.1607 43.545C33.9132 44.3834 35.0917 44.8021 36.6926 44.8021H47.167C48.0707 44.8253 48.9312 45.2533 48.9312 46.4277V47.8472C48.9312 49.9775 48.3646 51.6045 47.2344 52.7252C46.1041 53.8457 44.4626 54.4075 42.3142 54.4075H30.2668C28.8007 54.4075 27.0207 53.5388 27.0876 50.6588L27.5935 28.8811C27.7052 24.0649 30.2604 24.5015 32.4241 24.5015H73.174C73.3997 24.3855 73.8229 24.4041 73.8508 24.1537C74.0621 22.2744 70.6264 13.0901 62.0074 13.0901ZM128.146 12.9729H113.265C110.973 12.9729 109.903 13.3849 108.76 13.9312L100.546 18.2443C98.9108 19.5234 98.0928 20.7328 98.0928 21.869V29.8773C98.0622 30.6568 98.4065 31.4815 99.0739 31.92C99.7549 32.3676 100.799 32.5789 102.203 32.5528L105.889 32.5512C109.027 32.5501 109.567 32.7747 109.857 36.8211L109.874 62.7728C109.876 64.8198 110.654 65.8189 112.763 65.8189H131.075C132.449 65.1794 132.771 63.8551 132.771 62.4571V18.9912C132.771 16.0123 132.661 12.9729 128.146 12.9729ZM142.801 55.2823C142.801 61.3006 146.291 65.8189 153.484 65.8189H201.71C207.595 65.8189 212.338 62.3835 212.338 55.217V23.7057C212.338 16.5391 207.595 13.1037 201.71 13.1037H153.484C146.291 13.1037 142.801 17.6222 142.801 23.6404V55.2823ZM165.396 48.5762V30.3464C165.396 26.1342 167.975 24.0202 173.13 24.0202H183.362C188.745 24.0202 191.095 25.9582 191.095 31.0399V47.8828C191.095 52.9645 188.745 54.9025 183.362 54.9025H173.13C167.975 54.9025 165.396 52.7885 165.396 48.5762ZM292.869 22.2437C291.491 22.2437 290.241 20.7775 290.241 19.2848V8.56952C290.241 7.20197 291.415 5.84847 292.892 5.84847H300.656C302.133 5.84847 303.307 7.20197 303.307 8.56952V19.2848C303.307 20.7775 302.057 22.2437 300.679 22.2437H292.869ZM284.736 1.33806C283.336 1.33806 282.246 1.72307 281.469 2.49122C280.668 3.28292 280.145 4.50782 279.9 6.16483V21.9604C279.9 24.6841 281.531 26.2833 284.791 26.7541H308.757C312.017 26.2833 313.648 24.6841 313.648 21.9604V6.16483C313.403 4.50782 312.88 3.28292 312.079 2.49122C311.301 1.72307 310.212 1.33806 308.812 1.33806H284.736ZM233.176 1.33806H225.753C224.768 1.33806 224.72 1.36844 223.683 1.78075L219.703 3.86412C218.53 4.50675 218.662 4.88681 218.662 5.3026L218.665 9.37259C218.665 9.85583 218.796 10.1434 219.238 10.1407L222.432 10.1225C224.399 10.105 224.446 10.8872 224.539 12.9668V25.8627C224.554 26.1373 224.739 26.7954 225.254 26.7518H234.345C234.84 26.7518 235.006 26.2583 235.006 25.8077V3.8672C235.006 2.7317 234.979 1.33806 233.176 1.33806ZM248.288 1.33806H268.444C271.9 1.33806 274.551 3.50869 274.551 6.50126V11.438C274.551 13.6008 272.735 15.4534 268.906 16.0183L255.154 18.0485C252.206 18.4836 252.639 21.8165 254.786 21.8522L272.842 22.1537C275.731 22.2019 274.956 26.7541 272.955 26.7541H243.35C242.116 26.7541 241.493 26.1385 241.493 24.9128V18.4772C241.493 15.5555 242.334 12.9953 244.58 12.6573L262.811 9.91685C265.101 9.57253 263.649 6.83783 261.258 6.83783H243.35C243.052 6.83783 242.475 6.611 242.418 5.9384C242.151 2.75218 245.495 1.33806 248.288 1.33806Z" fill="url(#paint0_linear_44_88)" />
  <defs>
    <linearGradient id="paint0_linear_44_88" x1="157.583" y1="65.8189" x2="157.583" y2="11.1296" gradientUnits="userSpaceOnUse">
      <stop offset="0.522227" stop-color="white" stop-opacity="0.9" />
      <stop offset="1" stop-color="white" stop-opacity="0.6" />
    </linearGradient>
  </defs>
</svg>